<svg width="71" height="65" viewBox="0 0 71 65" fill="none" xmlns="http://www.w3.org/2000/svg">
<g opacity="0.6">
<path d="M35.8374 15.8862C38.557 26.0939 35.4281 35.7453 28.8487 37.4431C22.2694 39.1409 14.731 32.2423 12.0113 22.0346C9.29168 11.8269 12.4206 2.1755 19 0.477676C25.5793 -1.22015 33.1177 5.67848 35.8374 15.8862Z" fill="#F7A3BC"/>
<path d="M48.5489 23.2252C38.3489 25.9738 31.5551 33.5092 33.3744 40.056C35.1937 46.6028 44.9373 49.6819 55.1373 46.9333C65.3373 44.1848 72.1311 36.6494 70.3118 30.1026C68.4925 23.5557 58.7489 20.4766 48.5489 23.2252Z" fill="#F7A3BC"/>
<path d="M33.6597 31.6715C34.4098 36.7433 27.6386 41.8888 18.5359 43.1643C9.4331 44.4397 1.44576 41.3622 0.695656 36.2904C-0.0544448 31.2186 6.71673 26.0731 15.8195 24.7977C24.9223 23.5222 32.9096 26.5997 33.6597 31.6715Z" fill="#F7A3BC"/>
<path d="M35.9672 33.0038C31.1999 34.8901 30.1294 43.3268 33.5762 51.8478C37.023 60.3687 43.6819 65.7472 48.4492 63.8609C53.2166 61.9746 54.2871 53.5379 50.8403 45.0169C47.3935 36.496 40.7346 31.1175 35.9672 33.0038Z" fill="#F7A3BC"/>
<path d="M45.2339 21.217C44.3226 22.7954 42.2942 23.3304 40.7033 22.4119C39.1124 21.4934 38.5615 19.4693 39.4729 17.8908C40.3842 16.3124 42.4126 15.7774 44.0034 16.6959C45.5943 17.6144 46.1452 19.6385 45.2339 21.217Z" fill="#F7A3BC"/>
</g>
</svg>
