<svg width="71" height="64" viewBox="0 0 71 64" fill="none" xmlns="http://www.w3.org/2000/svg">
<g opacity="0.6">
<path d="M22.2746 22.9955C32.4746 25.744 39.2685 33.2794 37.4491 39.8263C35.6298 46.3731 25.8862 49.4522 15.6863 46.7036C5.48627 43.9551 -1.30759 36.4197 0.511741 29.8728C2.33107 23.326 12.0746 20.2469 22.2746 22.9955Z" fill="#F7A3BC"/>
<path d="M34.9861 15.6565C32.2665 25.8642 35.3954 35.5155 41.9748 37.2134C48.5542 38.9112 56.0925 32.0126 58.8122 21.8048C61.5319 11.5971 58.4029 1.94577 51.8236 0.247946C45.2442 -1.44988 37.7058 5.44875 34.9861 15.6565Z" fill="#F7A3BC"/>
<path d="M34.8563 32.774C39.6237 34.6603 40.6942 43.0971 37.2474 51.6181C33.8006 60.139 27.1417 65.5175 22.3743 63.6312C17.607 61.7449 16.5364 53.3082 19.9832 44.7872C23.4301 36.2662 30.0889 30.8878 34.8563 32.774Z" fill="#F7A3BC"/>
<path d="M37.1638 31.4418C36.4137 36.5136 43.1849 41.6591 52.2877 42.9345C61.3904 44.21 69.3778 41.1325 70.1279 36.0607C70.878 30.9889 64.1068 25.8434 55.004 24.5679C45.9012 23.2925 37.9139 26.37 37.1638 31.4418Z" fill="#F7A3BC"/>
<path d="M31.5894 17.5232C32.5008 19.1017 31.9499 21.1258 30.359 22.0443C28.7681 22.9628 26.7397 22.4278 25.8284 20.8494C24.9171 19.2709 25.468 17.2468 27.0589 16.3283C28.6497 15.4098 30.6781 15.9448 31.5894 17.5232Z" fill="#F7A3BC"/>
</g>
</svg>
