<svg width="121" height="36" viewBox="0 0 121 36" fill="none" xmlns="http://www.w3.org/2000/svg">
<ellipse opacity="0.5" cx="7.91512" cy="12.3049" rx="7.91512" ry="12.3049" transform="matrix(0.71486 -0.699268 0.707357 0.706856 -0.75 11.0695)" fill="#EB2D69"/>
<ellipse opacity="0.5" cx="7.91512" cy="12.3049" rx="7.91512" ry="12.3049" transform="matrix(-0.71486 -0.699268 -0.707357 0.706856 48.75 11.0695)" fill="#EB2D69"/>
<ellipse opacity="0.5" cx="10.7113" cy="5.96959" rx="10.7113" ry="5.96959" transform="matrix(0.789321 -0.613981 0.622674 0.782481 2.51953 26.6578)" fill="#EB2D69"/>
<ellipse opacity="0.5" cx="10.7113" cy="5.96959" rx="10.7113" ry="5.96959" transform="matrix(-0.789321 -0.613981 -0.622674 0.782481 45.4805 26.6578)" fill="#EB2D69"/>
<ellipse cx="24.0888" cy="8.64533" rx="2.14353" ry="2.11927" fill="#EE608C"/>
<path d="M55.418 25.18C54.9113 25.18 54.518 25.04 54.238 24.76C53.9713 24.48 53.838 24.0733 53.838 23.54V12.52C53.838 12 53.978 11.6 54.258 11.32C54.538 11.04 54.938 10.9 55.458 10.9H62.298C62.698 10.9 62.998 11.0067 63.198 11.22C63.4113 11.42 63.518 11.7133 63.518 12.1C63.518 12.5 63.4113 12.8067 63.198 13.02C62.998 13.22 62.698 13.32 62.298 13.32H56.938V16.76H61.858C62.258 16.76 62.5646 16.8667 62.778 17.08C62.9913 17.28 63.098 17.5733 63.098 17.96C63.098 18.3467 62.9913 18.6467 62.778 18.86C62.5646 19.0733 62.258 19.18 61.858 19.18H56.938V23.54C56.938 24.6333 56.4313 25.18 55.418 25.18ZM69.7522 25.22C68.5922 25.22 67.5922 25.0133 66.7522 24.6C65.9255 24.1733 65.2855 23.58 64.8322 22.82C64.3922 22.0467 64.1722 21.14 64.1722 20.1C64.1722 19.0867 64.3855 18.2 64.8122 17.44C65.2389 16.6667 65.8322 16.0667 66.5922 15.64C67.3655 15.2 68.2389 14.98 69.2122 14.98C69.9189 14.98 70.5589 15.1 71.1322 15.34C71.7055 15.5667 72.1989 15.9 72.6122 16.34C73.0255 16.7667 73.3389 17.2933 73.5522 17.92C73.7655 18.5333 73.8722 19.22 73.8722 19.98C73.8722 20.2333 73.7922 20.4267 73.6322 20.56C73.4722 20.68 73.2389 20.74 72.9322 20.74H66.6522V19.18H71.6922L71.3722 19.46C71.3722 18.9133 71.2922 18.46 71.1322 18.1C70.9722 17.7267 70.7389 17.4467 70.4322 17.26C70.1389 17.0733 69.7722 16.98 69.3322 16.98C68.8389 16.98 68.4189 17.0933 68.0722 17.32C67.7255 17.5467 67.4589 17.8733 67.2722 18.3C67.0855 18.7267 66.9922 19.24 66.9922 19.84V20C66.9922 21.0133 67.2255 21.76 67.6922 22.24C68.1722 22.72 68.8789 22.96 69.8122 22.96C70.1322 22.96 70.4989 22.92 70.9122 22.84C71.3255 22.76 71.7122 22.6333 72.0722 22.46C72.3789 22.3133 72.6522 22.2667 72.8922 22.32C73.1322 22.36 73.3189 22.4667 73.4522 22.64C73.5855 22.8133 73.6589 23.0133 73.6722 23.24C73.6989 23.4667 73.6522 23.6933 73.5322 23.92C73.4122 24.1333 73.2122 24.3133 72.9322 24.46C72.4789 24.7133 71.9655 24.9 71.3922 25.02C70.8322 25.1533 70.2855 25.22 69.7522 25.22ZM77.1888 25.18C76.6954 25.18 76.3154 25.0467 76.0488 24.78C75.7954 24.5133 75.6688 24.1333 75.6688 23.64V16.54C75.6688 16.0467 75.7954 15.6733 76.0488 15.42C76.3154 15.1533 76.6821 15.02 77.1488 15.02C77.6288 15.02 77.9954 15.1533 78.2488 15.42C78.5021 15.6733 78.6288 16.0467 78.6288 16.54V17.82L78.4088 17.02C78.6754 16.4067 79.0888 15.9133 79.6488 15.54C80.2088 15.1667 80.8688 14.98 81.6288 14.98C82.3888 14.98 83.0221 15.16 83.5288 15.52C84.0354 15.88 84.3954 16.4333 84.6088 17.18H84.3288C84.6221 16.5 85.0688 15.9667 85.6688 15.58C86.2821 15.18 86.9821 14.98 87.7688 14.98C88.5288 14.98 89.1488 15.1333 89.6288 15.44C90.1221 15.7333 90.4888 16.1867 90.7288 16.8C90.9688 17.4 91.0888 18.1667 91.0888 19.1V23.64C91.0888 24.1333 90.9554 24.5133 90.6888 24.78C90.4354 25.0467 90.0688 25.18 89.5888 25.18C89.0954 25.18 88.7154 25.0467 88.4488 24.78C88.1954 24.5133 88.0688 24.1333 88.0688 23.64V19.2C88.0688 18.5467 87.9621 18.0733 87.7488 17.78C87.5488 17.4733 87.2021 17.32 86.7088 17.32C86.1354 17.32 85.6888 17.52 85.3688 17.92C85.0488 18.32 84.8888 18.8867 84.8888 19.62V23.64C84.8888 24.1333 84.7554 24.5133 84.4888 24.78C84.2354 25.0467 83.8688 25.18 83.3888 25.18C82.9088 25.18 82.5354 25.0467 82.2688 24.78C82.0021 24.5133 81.8688 24.1333 81.8688 23.64V19.2C81.8688 18.5467 81.7621 18.0733 81.5488 17.78C81.3488 17.4733 81.0021 17.32 80.5088 17.32C79.9354 17.32 79.4888 17.52 79.1688 17.92C78.8488 18.32 78.6888 18.8867 78.6888 19.62V23.64C78.6888 24.6667 78.1888 25.18 77.1888 25.18ZM94.9622 25.18C94.4689 25.18 94.0889 25.0467 93.8222 24.78C93.5689 24.5133 93.4422 24.1333 93.4422 23.64V16.54C93.4422 16.0467 93.5689 15.6733 93.8222 15.42C94.0889 15.1533 94.4555 15.02 94.9222 15.02C95.4022 15.02 95.7689 15.1533 96.0222 15.42C96.2755 15.6733 96.4022 16.0467 96.4022 16.54V17.82L96.1822 17.02C96.4489 16.4067 96.8622 15.9133 97.4222 15.54C97.9822 15.1667 98.6422 14.98 99.4022 14.98C100.162 14.98 100.796 15.16 101.302 15.52C101.809 15.88 102.169 16.4333 102.382 17.18H102.102C102.396 16.5 102.842 15.9667 103.442 15.58C104.056 15.18 104.756 14.98 105.542 14.98C106.302 14.98 106.922 15.1333 107.402 15.44C107.896 15.7333 108.262 16.1867 108.502 16.8C108.742 17.4 108.862 18.1667 108.862 19.1V23.64C108.862 24.1333 108.729 24.5133 108.462 24.78C108.209 25.0467 107.842 25.18 107.362 25.18C106.869 25.18 106.489 25.0467 106.222 24.78C105.969 24.5133 105.842 24.1333 105.842 23.64V19.2C105.842 18.5467 105.736 18.0733 105.522 17.78C105.322 17.4733 104.976 17.32 104.482 17.32C103.909 17.32 103.462 17.52 103.142 17.92C102.822 18.32 102.662 18.8867 102.662 19.62V23.64C102.662 24.1333 102.529 24.5133 102.262 24.78C102.009 25.0467 101.642 25.18 101.162 25.18C100.682 25.18 100.309 25.0467 100.042 24.78C99.7755 24.5133 99.6422 24.1333 99.6422 23.64V19.2C99.6422 18.5467 99.5355 18.0733 99.3222 17.78C99.1222 17.4733 98.7755 17.32 98.2822 17.32C97.7089 17.32 97.2622 17.52 96.9422 17.92C96.6222 18.32 96.4622 18.8867 96.4622 19.62V23.64C96.4622 24.6667 95.9622 25.18 94.9622 25.18ZM113.758 28.78C113.411 28.78 113.125 28.6867 112.898 28.5C112.671 28.3133 112.538 28.0667 112.498 27.76C112.458 27.4667 112.511 27.1533 112.658 26.82L113.998 23.86V25.1L110.458 16.98C110.325 16.6333 110.278 16.3133 110.318 16.02C110.371 15.7133 110.518 15.4733 110.758 15.3C111.011 15.1133 111.358 15.02 111.798 15.02C112.158 15.02 112.445 15.1067 112.658 15.28C112.885 15.44 113.091 15.7533 113.278 16.22L115.638 22.22H114.998L117.438 16.2C117.625 15.7467 117.831 15.44 118.058 15.28C118.298 15.1067 118.618 15.02 119.018 15.02C119.365 15.02 119.638 15.1133 119.838 15.3C120.051 15.4733 120.178 15.7067 120.218 16C120.271 16.2933 120.218 16.6133 120.058 16.96L115.358 27.62C115.158 28.0733 114.931 28.38 114.678 28.54C114.438 28.7 114.131 28.78 113.758 28.78Z" fill="#454545"/>
</svg>
