<svg width="17" height="20" viewBox="0 0 17 20" fill="none" xmlns="http://www.w3.org/2000/svg">
<path d="M11.4736 14.1836L3.19922 18.8496C2.89929 19.0495 2.54928 19.1494 2.14941 19.1494C1.39197 19.1493 0.730133 18.7361 0.366211 18.1377L7.91504 10.6855L11.4736 14.1836ZM7.20117 9.98438L0.0996094 16.9951V3.00391L7.20117 9.98438ZM15.6494 8.20117C16.2994 8.55117 16.7498 9.25098 16.7998 10.001C16.7997 10.7508 16.3499 11.4507 15.7002 11.8008L12.3809 13.6719L8.62695 9.98242L12.3398 6.31836L15.6494 8.20117ZM2.14941 0.849609C2.54941 0.849609 2.95 0.949414 3.25 1.14941L11.4365 5.80469L7.91309 9.28125L0.353516 1.85156C0.706849 1.25872 1.39631 0.849698 2.14941 0.849609Z" fill="#EB2D69"/>
</svg>
