<svg width="40" height="40" viewBox="0 0 40 40" fill="none" xmlns="http://www.w3.org/2000/svg">
<path d="M33.1201 0C35.5283 1.276e-10 36.7325 8.573e-05 37.6523 0.46875C38.4613 0.880981 39.119 1.5387 39.5312 2.34766C39.9999 3.26746 40 4.47174 40 6.87988V33.1201C40 35.5283 39.9999 36.7325 39.5312 37.6523C39.119 38.4613 38.4613 39.119 37.6523 39.5312C36.7325 39.9999 35.5283 40 33.1201 40H6.87988C4.47174 40 3.26746 39.9999 2.34766 39.5312C1.5387 39.119 0.880981 38.4613 0.46875 37.6523C8.56526e-05 36.7325 1.25061e-10 35.5283 0 33.1201V6.87988C1.276e-10 4.47174 8.573e-05 3.26746 0.46875 2.34766C0.880981 1.5387 1.5387 0.880981 2.34766 0.46875C3.26746 8.56526e-05 4.47174 1.25061e-10 6.87988 0H33.1201ZM19.4287 5.71484C14.6283 5.71484 12.2281 5.71518 10.3945 6.64941C8.78183 7.47114 7.47021 8.78185 6.64844 10.3945C5.71423 12.228 5.71484 14.6285 5.71484 19.4287V20.5723C5.71484 25.3725 5.71423 27.773 6.64844 29.6064C7.47019 31.2192 8.78182 32.5298 10.3945 33.3516C12.2281 34.2858 14.6283 34.2861 19.4287 34.2861H20.5713C25.3717 34.2861 27.7719 34.2858 29.6055 33.3516C31.2182 32.5298 32.5298 31.2192 33.3516 29.6064C34.2858 27.773 34.2861 25.3725 34.2861 20.5723V19.4287C34.2861 14.6285 34.2858 12.228 33.3516 10.3945C32.5298 8.78185 31.2182 7.47113 29.6055 6.64941C27.7719 5.71521 25.3717 5.71484 20.5713 5.71484H19.4287ZM20.5713 8.57227C23.0187 8.57227 24.6828 8.57462 25.9688 8.67969C27.221 8.78202 27.8618 8.96671 28.3086 9.19434C29.3838 9.74218 30.2578 10.6172 30.8057 11.6924C31.0333 12.1392 31.219 12.7798 31.3213 14.0322C31.4263 15.3181 31.4287 16.9816 31.4287 19.4287V20.5723C31.4287 23.0193 31.4263 24.6829 31.3213 25.9688C31.219 27.2211 31.0333 27.8618 30.8057 28.3086C30.2578 29.3838 29.3838 30.2588 28.3086 30.8066C27.8618 31.0343 27.2211 31.2199 25.9688 31.3223C24.6828 31.4273 23.0187 31.4287 20.5713 31.4287H19.4287C16.9813 31.4287 15.3172 31.4273 14.0312 31.3223C12.7789 31.2199 12.1382 31.0343 11.6914 30.8066C10.6162 30.2588 9.74218 29.3838 9.19434 28.3086C8.96674 27.8618 8.78102 27.221 8.67871 25.9688C8.57367 24.6829 8.57129 23.0193 8.57129 20.5723V19.4287C8.57129 16.9817 8.57366 15.3181 8.67871 14.0322C8.78103 12.7799 8.96671 12.1392 9.19434 11.6924C9.74218 10.6172 10.6162 9.74218 11.6914 9.19434C12.1382 8.96669 12.779 8.78203 14.0312 8.67969C15.3172 8.57462 16.9813 8.57227 19.4287 8.57227H20.5713ZM20 12.8574C16.0551 12.8575 12.8574 16.0561 12.8574 20.001C12.8576 23.9457 16.0553 27.1435 20 27.1436C23.9447 27.1436 27.1424 23.9457 27.1426 20.001C27.1426 16.0561 23.9449 12.8574 20 12.8574ZM20 15.7148C22.3669 15.7148 24.2861 17.634 24.2861 20.001C24.2859 22.3677 22.3668 24.2861 20 24.2861C17.6332 24.2861 15.7141 22.3677 15.7139 20.001C15.7139 17.6341 17.6331 15.7149 20 15.7148ZM27.8574 10.001C26.674 10.001 25.7139 10.9601 25.7139 12.1436C25.7139 13.327 26.674 14.2861 27.8574 14.2861C29.0407 14.286 29.9999 13.3269 30 12.1436C30 10.9602 29.0408 10.0011 27.8574 10.001Z" fill="#EB2D69"/>
</svg>
