<svg width="18" height="22" viewBox="0 0 18 22" fill="none" xmlns="http://www.w3.org/2000/svg">
<path d="M17.1952 7.62988C16.4923 8.06001 15.9101 8.66145 15.503 9.3779C15.096 10.0944 14.8774 10.9024 14.8677 11.7264C14.8704 12.6537 15.1452 13.5598 15.6579 14.3326C16.1705 15.1053 16.8986 15.7106 17.752 16.0737C17.4155 17.1591 16.9176 18.1878 16.2749 19.125C15.3554 20.4487 14.3939 21.7724 12.9309 21.7724C11.4679 21.7724 11.0917 20.9225 9.40568 20.9225C7.76135 20.9225 7.17634 21.8003 5.8391 21.8003C4.50186 21.8003 3.56818 20.5741 2.49531 19.0693C1.07798 16.9613 0.299037 14.489 0.251953 11.9493C0.251953 7.76895 2.96904 5.55373 5.64421 5.55373C7.06552 5.55373 8.24967 6.4873 9.14132 6.4873C9.99127 6.4873 11.315 5.49803 12.9313 5.49803C13.7623 5.47652 14.5859 5.65972 15.3295 6.03148C16.073 6.40324 16.7137 6.95216 17.1952 7.62988ZM9.25306 5.26111C9.15488 5.26081 9.05692 5.25151 8.96044 5.23332C8.93319 5.10501 8.91918 4.97425 8.91864 4.84308C8.96514 3.7647 9.38365 2.7357 10.103 1.93099C10.9104 1.00357 12.0421 0.420276 13.2659 0.300781C13.295 0.442887 13.309 0.587664 13.3077 0.732709C13.2812 1.83265 12.8778 2.89014 12.1652 3.72841C11.809 4.16792 11.3672 4.53044 10.8666 4.79392C10.366 5.0574 9.817 5.21635 9.25306 5.26111Z" fill="#EB2D69"/>
</svg>
