<svg width="40" height="40" viewBox="0 0 40 40" fill="none" xmlns="http://www.w3.org/2000/svg">
<path d="M20 0C25.303 0 30.3938 2.10817 34.1406 5.85742C37.8906 9.6068 40 14.6978 40 20C40 25.3022 37.8906 30.3932 34.1406 34.1426C30.3938 37.8918 25.303 40 20 40C14.697 40 9.60623 37.8918 5.85938 34.1426C2.10938 30.3932 0 25.3022 0 20C0.00103897 14.6956 2.10863 9.60828 5.85938 5.85742C9.60623 2.10817 14.697 0 20 0ZM28.1777 12.0391C27.4246 12.0527 26.2714 12.4546 20.7158 14.7646C18.7721 15.5737 14.884 17.2481 9.05273 19.7881C8.10596 20.1646 7.60918 20.5336 7.56543 20.8936C7.47843 21.5847 8.47498 21.8 9.72461 22.207C10.7464 22.5389 12.1214 22.927 12.834 22.9424C13.484 22.9564 14.2061 22.6897 15.0029 22.1416C20.4529 18.4644 23.2623 16.6054 23.4404 16.5654C23.5653 16.5373 23.7369 16.5019 23.8525 16.6055C23.9711 16.7091 23.9588 16.9058 23.9463 16.959C23.8494 17.381 18.7342 22.0332 18.4375 22.3418C17.3125 23.5105 16.0311 24.2262 18.0059 25.5273C19.7152 26.6533 20.7094 27.3713 22.4688 28.5254C23.5937 29.2626 24.4752 30.1371 25.6377 30.0303C26.1719 29.981 26.7249 29.4779 27.0029 27.9795C27.6655 24.4371 28.9686 16.763 29.2686 13.6006C29.2966 13.3238 29.2623 12.969 29.2373 12.8135C29.2092 12.6578 29.1527 12.4364 28.9531 12.2725C28.7125 12.0779 28.3434 12.0364 28.1777 12.0391Z" fill="#EB2D69"/>
</svg>
